<?xml version="1.0" standalone="no"?>
<!DOCTYPE svg PUBLIC "-//W3C//DTD SVG 20010904//EN"
 "http://www.w3.org/TR/2001/REC-SVG-20010904/DTD/svg10.dtd">
<svg version="1.0" xmlns="http://www.w3.org/2000/svg"
 width="500.000000pt" height="500.000000pt" viewBox="0 0 500.000000 500.000000"
 preserveAspectRatio="xMidYMid meet">
<metadata>
Created by potrace 1.14, written by Peter Selinger 2001-2017
</metadata>
<g transform="translate(0.000000,500.000000) scale(0.100000,-0.100000)"
fill="#000000" stroke="none">
<path d="M2280 4883 c-425 -51 -736 -174 -1059 -420 -41 -32 -85 -65 -96 -73
-54 -40 -245 -247 -320 -346 -115 -151 -151 -213 -233 -400 -75 -169 -126
-330 -163 -510 -28 -141 -36 -485 -14 -639 20 -135 75 -363 104 -430 5 -11 15
-36 22 -55 6 -19 34 -81 61 -138 26 -56 48 -106 48 -110 0 -4 28 -53 61 -107
61 -99 134 -197 203 -270 l36 -38 -66 -116 c-37 -64 -80 -135 -95 -159 -16
-24 -29 -45 -29 -46 0 -2 -17 -33 -39 -68 -21 -35 -55 -97 -75 -138 -21 -41
-46 -89 -58 -108 -11 -18 -19 -34 -17 -36 6 -5 210 -44 264 -50 28 -4 112 -18
188 -33 l138 -26 57 -66 c31 -36 68 -79 82 -95 14 -16 30 -34 35 -40 6 -6 57
-65 114 -131 58 -66 107 -121 110 -122 9 -4 64 86 250 405 36 63 76 134 89
159 19 39 26 44 45 38 62 -19 256 -56 362 -69 147 -17 384 -13 520 8 102 17
270 51 296 61 9 3 23 -10 39 -40 14 -24 60 -104 104 -177 43 -73 90 -153 104
-178 14 -25 47 -79 74 -120 26 -41 50 -79 52 -85 2 -5 17 6 33 25 15 19 51 59
79 90 27 30 97 109 155 175 57 66 113 129 124 141 21 22 149 53 305 74 77 10
292 51 299 56 2 2 -8 22 -22 46 -14 24 -50 91 -81 151 -30 59 -68 126 -84 150
-16 23 -66 105 -111 183 l-81 141 41 44 c115 123 185 231 281 429 87 179 106
228 153 394 129 460 96 942 -94 1378 -135 310 -244 470 -476 703 -187 187
-513 396 -740 473 -314 107 -683 151 -975 115z"/>
</g>
</svg>
