<?xml version="1.0" standalone="no"?>
<!DOCTYPE svg PUBLIC "-//W3C//DTD SVG 20010904//EN"
 "http://www.w3.org/TR/2001/REC-SVG-20010904/DTD/svg10.dtd">
<svg version="1.0" xmlns="http://www.w3.org/2000/svg"
 width="800.000000pt" height="800.000000pt" viewBox="0 0 800.000000 800.000000"
 preserveAspectRatio="xMidYMid meet">
<metadata>
Created by potrace 1.14, written by Peter Selinger 2001-2017
</metadata>
<g transform="translate(0.000000,800.000000) scale(0.100000,-0.100000)"
fill="#000000" stroke="none">
<path d="M3799 7216 c-2 -2 -42 -7 -89 -11 -46 -3 -87 -8 -90 -10 -3 -1 -29
-6 -59 -9 -180 -22 -463 -102 -681 -195 -441 -188 -882 -532 -1156 -901 -22
-30 -53 -72 -68 -93 -79 -108 -199 -322 -264 -467 -118 -270 -203 -569 -228
-810 -3 -36 -9 -69 -11 -73 -3 -5 -7 -106 -9 -225 -3 -190 4 -326 20 -427 4
-27 7 -49 22 -150 13 -87 68 -296 111 -419 65 -189 175 -422 260 -555 104
-163 204 -300 275 -379 43 -47 43 -59 3 -122 -13 -19 -116 -197 -230 -395
-114 -198 -216 -374 -226 -391 l-19 -31 162 -32 c190 -37 166 -32 338 -66 74
-15 144 -29 155 -31 11 -2 31 -6 45 -9 14 -2 40 -7 59 -10 47 -8 54 -13 107
-75 25 -30 60 -71 78 -90 17 -19 60 -69 96 -110 35 -41 71 -82 80 -91 8 -8 62
-70 119 -137 57 -67 108 -119 113 -116 4 3 17 22 28 42 11 20 25 44 30 52 21
32 130 222 130 226 0 3 16 30 35 60 19 30 35 56 35 58 0 2 30 55 66 117 37 63
76 130 86 149 51 89 70 120 76 120 4 0 28 -7 54 -15 67 -20 264 -63 323 -70
28 -4 60 -8 71 -10 66 -10 238 -19 369 -18 274 1 444 22 704 89 52 13 95 23
96 22 2 -2 24 -39 49 -83 25 -44 51 -87 56 -95 6 -8 13 -22 17 -30 4 -8 70
-123 146 -255 77 -132 155 -268 175 -302 20 -35 39 -63 42 -62 3 0 42 44 88
97 82 96 94 111 196 227 29 33 68 78 87 100 19 21 41 46 49 55 8 9 39 43 68
77 47 53 60 62 100 69 26 4 52 8 57 10 20 4 541 106 565 110 79 14 130 26 130
32 0 4 -16 33 -34 64 -19 31 -46 76 -59 100 -13 24 -112 195 -220 382 l-195
339 61 72 c226 264 426 626 535 966 34 107 76 272 87 344 3 17 7 41 10 55 3
14 8 45 11 70 3 25 7 56 9 69 22 136 23 550 0 681 -2 14 -6 43 -10 65 -5 38
-20 126 -29 170 -44 222 -135 484 -245 705 -60 120 -187 333 -202 338 -5 2 -9
8 -9 13 0 15 -135 188 -217 278 -295 322 -613 549 -1017 726 -138 61 -423 149
-546 170 -19 3 -60 10 -90 15 -30 6 -76 12 -101 15 -26 3 -58 8 -70 11 -26 7
-504 15 -510 10z"/>
</g>
</svg>
